<svg xmlns="http://www.w3.org/2000/svg" xmlns:xlink="http://www.w3.org/1999/xlink" width="512" zoomAndPan="magnify" viewBox="0 0 384 383.999986" height="512" preserveAspectRatio="xMidYMid meet" version="1.0"><defs><clipPath id="id1"><path d="M 12.273438 100 L 139 100 L 139 284 L 12.273438 284 Z M 12.273438 100 " clip-rule="nonzero"/></clipPath><clipPath id="id2"><path d="M 245 100 L 371.523438 100 L 371.523438 284 L 245 284 Z M 245 100 " clip-rule="nonzero"/></clipPath><clipPath id="id3"><path d="M 129 52.46875 L 253 52.46875 L 253 331.46875 L 129 331.46875 Z M 129 52.46875 " clip-rule="nonzero"/></clipPath></defs><path fill="#42dca3" d="M 125.613281 279.941406 C 123.628906 279.941406 121.671875 279.277344 120.113281 278.03125 L 19.640625 198.957031 C 17.480469 197.257812 16.242188 194.710938 16.242188 191.96875 C 16.242188 189.222656 17.480469 186.675781 19.636719 184.960938 L 120.113281 105.902344 C 121.671875 104.660156 123.628906 103.992188 125.613281 103.992188 C 128.355469 103.992188 130.917969 105.21875 132.601562 107.386719 C 134.070312 109.253906 134.738281 111.585938 134.449219 113.9375 C 134.179688 116.304688 132.980469 118.410156 131.117188 119.882812 L 39.546875 191.96875 L 131.117188 264.035156 C 132.980469 265.523438 134.179688 267.628906 134.449219 269.980469 C 134.738281 272.347656 134.070312 274.667969 132.601562 276.546875 C 130.917969 278.699219 128.355469 279.941406 125.613281 279.941406 " fill-opacity="1" fill-rule="nonzero"/><g clip-path="url(#id1)"><path fill="#32a97d" d="M 125.613281 100.199219 C 122.777344 100.199219 120.003906 101.15625 117.777344 102.914062 L 17.296875 181.988281 C 14.210938 184.429688 12.453125 188.054688 12.453125 191.96875 C 12.453125 195.878906 14.222656 199.519531 17.296875 201.945312 L 117.777344 281.019531 C 119.988281 282.761719 122.777344 283.734375 125.613281 283.734375 C 129.539062 283.734375 133.175781 281.960938 135.585938 278.882812 C 137.695312 276.226562 138.621094 272.90625 138.226562 269.542969 C 137.816406 266.175781 136.132812 263.15625 133.464844 261.066406 L 45.671875 191.96875 L 133.464844 122.867188 C 136.132812 120.761719 137.816406 117.757812 138.226562 114.394531 C 138.621094 111.027344 137.695312 107.707031 135.585938 105.039062 C 133.175781 101.960938 129.523438 100.199219 125.613281 100.199219 Z M 125.613281 107.78125 C 127.128906 107.78125 128.628906 108.449219 129.628906 109.722656 C 131.390625 111.953125 130.996094 115.167969 128.78125 116.910156 L 33.410156 191.96875 L 128.78125 267.023438 C 130.996094 268.769531 131.390625 271.984375 129.628906 274.195312 C 128.628906 275.484375 127.128906 276.152344 125.613281 276.152344 C 124.507812 276.152344 123.402344 275.804688 122.460938 275.0625 L 21.980469 195.984375 C 20.753906 195.015625 20.03125 193.527344 20.03125 191.96875 C 20.03125 190.390625 20.753906 188.917969 21.980469 187.949219 L 122.460938 108.875 C 123.386719 108.128906 124.507812 107.78125 125.613281 107.78125 " fill-opacity="1" fill-rule="nonzero"/></g><path fill="#42dca3" d="M 258.183594 279.941406 C 255.441406 279.941406 252.894531 278.699219 251.179688 276.546875 C 248.148438 272.695312 248.816406 267.085938 252.683594 264.035156 L 344.265625 191.96875 L 252.683594 119.882812 C 248.816406 116.847656 248.148438 111.238281 251.179688 107.386719 C 252.894531 105.21875 255.441406 103.992188 258.183594 103.992188 C 260.167969 103.992188 262.125 104.660156 263.6875 105.902344 L 364.167969 184.960938 C 366.320312 186.675781 367.546875 189.222656 367.546875 191.96875 C 367.546875 194.710938 366.320312 197.257812 364.152344 198.957031 L 263.6875 278.03125 C 262.125 279.277344 260.167969 279.941406 258.183594 279.941406 " fill-opacity="1" fill-rule="nonzero"/><g clip-path="url(#id2)"><path fill="#32a97d" d="M 258.183594 100.199219 C 254.273438 100.199219 250.636719 101.960938 248.210938 105.039062 C 243.875 110.542969 244.828125 118.53125 250.332031 122.871094 L 338.125 191.96875 L 250.332031 261.066406 C 244.828125 265.386719 243.875 273.394531 248.210938 278.882812 C 250.636719 281.960938 254.273438 283.734375 258.183594 283.734375 C 261.019531 283.734375 263.792969 282.761719 266.019531 281.019531 L 366.5 201.945312 C 369.578125 199.519531 371.335938 195.878906 371.335938 191.96875 C 371.335938 188.054688 369.578125 184.429688 366.515625 181.988281 L 266.035156 102.914062 C 263.808594 101.15625 261.019531 100.199219 258.183594 100.199219 Z M 258.183594 107.78125 C 259.289062 107.78125 260.414062 108.128906 261.335938 108.875 L 361.816406 187.949219 C 363.046875 188.917969 363.757812 190.390625 363.757812 191.96875 C 363.757812 193.527344 363.046875 195.015625 361.816406 195.984375 L 261.335938 275.0625 C 260.414062 275.804688 259.289062 276.152344 258.183594 276.152344 C 256.667969 276.152344 255.167969 275.484375 254.167969 274.195312 C 252.425781 271.984375 252.804688 268.769531 255.015625 267.023438 L 350.390625 191.96875 L 255.015625 116.910156 C 252.804688 115.167969 252.425781 111.953125 254.167969 109.722656 C 255.167969 108.449219 256.683594 107.78125 258.183594 107.78125 " fill-opacity="1" fill-rule="nonzero"/></g><path fill="#42dca3" d="M 141.96875 327.660156 C 140.863281 327.660156 139.785156 327.449219 138.753906 327.054688 C 136.542969 326.191406 134.785156 324.523438 133.828125 322.355469 C 132.859375 320.171875 132.8125 317.757812 133.664062 315.546875 L 231.792969 61.960938 C 233.113281 58.5625 236.449219 56.273438 240.085938 56.273438 C 241.191406 56.273438 242.285156 56.484375 243.3125 56.878906 C 247.875 58.652344 250.164062 63.824219 248.390625 68.402344 L 150.277344 321.976562 C 148.957031 325.371094 145.605469 327.660156 141.96875 327.660156 " fill-opacity="1" fill-rule="nonzero"/><g clip-path="url(#id3)"><path fill="#32a97d" d="M 240.085938 52.480469 C 234.886719 52.480469 230.125 55.757812 228.261719 60.59375 L 130.128906 314.167969 C 128.917969 317.335938 128.992188 320.777344 130.359375 323.886719 C 131.738281 326.980469 134.222656 329.375 137.390625 330.585938 C 138.863281 331.164062 140.394531 331.453125 141.96875 331.453125 C 147.167969 331.453125 151.929688 328.191406 153.808594 323.339844 L 251.925781 69.769531 C 254.457031 63.234375 251.195312 55.863281 244.664062 53.347656 C 243.207031 52.769531 241.660156 52.480469 240.085938 52.480469 Z M 240.085938 60.0625 C 240.707031 60.0625 241.328125 60.183594 241.933594 60.414062 C 244.574219 61.429688 245.875 64.386719 244.859375 67.023438 L 146.730469 320.59375 C 145.957031 322.628906 144.015625 323.871094 141.96875 323.871094 C 141.347656 323.871094 140.726562 323.765625 140.121094 323.523438 C 137.480469 322.503906 136.179688 319.535156 137.210938 316.910156 L 235.324219 63.339844 C 236.113281 61.308594 238.039062 60.0625 240.085938 60.0625 " fill-opacity="1" fill-rule="nonzero"/></g></svg>